<?xml version="1.0" encoding="UTF-8"?>
<svg version="1.1" xmlns="http://www.w3.org/2000/svg" width="256" height="256">
<path d="M0 0 C1.35303886 -0.00463832 2.70607644 -0.00966431 4.05911255 -0.01504517 C7.71249665 -0.02807671 11.36586245 -0.03459632 15.01926613 -0.03905582 C17.31081506 -0.04200258 19.60235917 -0.04611035 21.89390564 -0.05056 C29.0897648 -0.06421281 36.28561273 -0.07388934 43.48148394 -0.07776189 C51.73902986 -0.08223233 59.99640942 -0.09974229 68.25390482 -0.12876248 C74.66873961 -0.15051034 81.08352806 -0.16047316 87.49839926 -0.16180301 C91.31457543 -0.16284205 95.13059479 -0.16855404 98.94673157 -0.18662262 C138.91559204 -0.36508811 138.91559204 -0.36508811 151.83398438 6.78613281 C152.48810303 7.13240723 153.14222168 7.47868164 153.81616211 7.83544922 C167.89183593 15.59834397 177.09391061 28.18287753 182.11132812 43.31738281 C184.6442685 52.63564521 184.54905654 62.19176201 184.55761719 71.76464844 C184.56225551 73.1176873 184.5672815 74.47072488 184.57266235 75.82376099 C184.58569389 79.47714509 184.59221351 83.13051089 184.59667301 86.78391457 C184.59961977 89.0754635 184.60372753 91.3670076 184.60817719 93.65855408 C184.62183 100.85441324 184.63150653 108.05026117 184.63537908 115.24613237 C184.63984952 123.5036783 184.65735948 131.76105786 184.68637967 140.01855326 C184.70812753 146.43338805 184.71809034 152.8481765 184.71942019 159.2630477 C184.72045923 163.07922387 184.72617123 166.89524323 184.74423981 170.71138 C184.9227053 210.68024048 184.9227053 210.68024048 177.77148438 223.59863281 C177.42520996 224.25275146 177.07893555 224.90687012 176.72216797 225.58081055 C168.95927321 239.65648437 156.37473966 248.85855905 141.24023438 253.87597656 C131.92197198 256.40891694 122.36585518 256.31370498 112.79296875 256.32226562 C111.43992989 256.32690394 110.08689231 256.33192993 108.7338562 256.33731079 C105.0804721 256.35034233 101.4271063 256.35686195 97.77370262 256.36132145 C95.48215369 256.3642682 93.19060958 256.36837597 90.89906311 256.37282562 C83.70320395 256.38647843 76.50735602 256.39615496 69.31148481 256.40002751 C61.05393889 256.40449795 52.79655933 256.42200792 44.53906393 256.45102811 C38.12422914 256.47277597 31.70944069 256.48273878 25.29456949 256.48406863 C21.47839332 256.48510767 17.66237396 256.49081967 13.84623718 256.50888824 C-26.12262329 256.68735374 -26.12262329 256.68735374 -39.04101562 249.53613281 C-39.69513428 249.1898584 -40.34925293 248.84358398 -41.02319336 248.48681641 C-55.09886718 240.72392165 -64.30094186 228.13938809 -69.31835938 213.00488281 C-71.85129975 203.68662042 -71.75608779 194.13050361 -71.76464844 184.55761719 C-71.76928676 183.20457833 -71.77431275 181.85154075 -71.7796936 180.49850464 C-71.79272514 176.84512054 -71.79924476 173.19175473 -71.80370426 169.53835106 C-71.80665102 167.24680213 -71.81075878 164.95525802 -71.81520844 162.66371155 C-71.82886125 155.46785238 -71.83853778 148.27200446 -71.84241033 141.07613325 C-71.84688077 132.81858732 -71.86439073 124.56120777 -71.89341092 116.30371237 C-71.91515878 109.88887757 -71.92512159 103.47408913 -71.92645144 97.05921793 C-71.92749048 93.24304175 -71.93320248 89.4270224 -71.95127106 85.61088562 C-72.12973655 45.64202514 -72.12973655 45.64202514 -64.97851562 32.72363281 C-64.63224121 32.06951416 -64.2859668 31.41539551 -63.92919922 30.74145508 C-56.16630446 16.66578126 -43.58177091 7.46370657 -28.44726562 2.44628906 C-19.12900323 -0.08665131 -9.57288643 0.00856065 0 0 Z " fill="#22054C" transform="translate(71.603515625,-0.1611328125)"/>
<path d="M0 0 C8.0932446 2.51591923 16.7194173 0.39835237 24.83984375 -1.1171875 C26.98460875 -1.49825019 29.13043514 -1.87339338 31.27734375 -2.2421875 C32.22480469 -2.40976562 33.17226562 -2.57734375 34.1484375 -2.75 C35.03660156 -2.87117188 35.92476562 -2.99234375 36.83984375 -3.1171875 C37.67515625 -3.25898438 38.51046875 -3.40078125 39.37109375 -3.546875 C43.2190052 -2.87714358 44.74139065 -0.118733 46.90234375 2.8828125 C47.3720459 3.50929688 47.84174805 4.13578125 48.32568359 4.78125 C49.32757808 6.12019648 50.32284114 7.46412624 51.31201172 8.8125 C52.81956624 10.85533514 54.35689088 12.87155408 55.90625 14.8828125 C62.34668491 23.27722551 68.33805471 31.8449899 73.83984375 40.8828125 C74.31550781 41.60597656 74.79117188 42.32914063 75.28125 43.07421875 C79.14027868 49.51489728 78.64419188 56.92837031 77.47265625 64.14453125 C75.55330444 70.62563017 70.40023009 75.13492129 65.83984375 79.8828125 C63.83078167 82.04114633 61.83627134 84.21279631 59.83984375 86.3828125 C58.82428493 87.48052998 57.80866051 88.57818677 56.79296875 89.67578125 C52.76523885 94.03915531 48.79730703 98.45565029 44.83984375 102.8828125 C45.33484375 104.0378125 45.82984375 105.1928125 46.33984375 106.3828125 C48.96431639 114.31901686 49.49010297 124.88916501 46.33984375 132.7578125 C42.76716667 139.39278423 37.92730794 145.45196291 31.83984375 149.8828125 C32.91468018 149.89739502 33.9895166 149.91197754 35.09692383 149.92700195 C39.08359092 149.9849614 43.06969176 150.06219379 47.0559082 150.14526367 C48.78140068 150.17852422 50.50700224 150.20655269 52.23266602 150.22924805 C54.71287541 150.26277403 57.19208405 150.31508656 59.671875 150.37109375 C60.8298333 150.38067863 60.8298333 150.38067863 62.01118469 150.39045715 C64.92280927 150.47044539 67.26269696 150.55081974 69.82104492 152.02246094 C72.32851058 156.60115451 71.34996887 162.74509459 71.33984375 167.8203125 C71.36820313 169.10873047 71.3965625 170.39714844 71.42578125 171.72460938 C71.42835938 172.96146484 71.4309375 174.19832031 71.43359375 175.47265625 C71.44068359 176.60566162 71.44777344 177.73866699 71.45507812 178.90600586 C70.83984375 181.8828125 70.83984375 181.8828125 68.73727417 184.04069519 C65.16084713 186.31450239 63.08239872 186.3651095 58.86572266 186.33349609 C58.18373306 186.33419601 57.50174347 186.33489594 56.79908752 186.33561707 C55.3247754 186.33490216 53.85044587 186.32523276 52.37623978 186.30753708 C50.03796613 186.28092634 47.70103956 186.28097199 45.36264038 186.28823853 C38.71745441 186.30386506 32.07274176 186.26959862 25.42773438 186.22265625 C21.35630167 186.19573113 17.28567699 186.19798699 13.21421432 186.21712112 C11.66812011 186.21819952 10.12197179 186.2078201 8.57603836 186.18549728 C-1.09167348 185.72804845 -1.09167348 185.72804845 -9.47900391 189.80712891 C-10.38317519 190.82314925 -11.27815001 191.84749224 -12.16015625 192.8828125 C-16.67737691 195.76614484 -20.86043946 197.01442463 -26.16015625 195.8828125 C-32.82216851 192.99958097 -37.94943465 188.42626042 -43.18359375 183.5078125 C-47.57341834 179.63647113 -52.27349525 176.18933549 -57.00805664 172.75170898 C-69.85672258 163.21112295 -69.85672258 163.21112295 -71.09765625 155.6953125 C-71.73288221 151.96257402 -71.73288221 151.96257402 -73.765625 150.62109375 C-75.15264684 149.8564879 -76.54211245 149.09630358 -77.93359375 148.33984375 C-85.05051158 143.68263261 -90.35632948 135.11915358 -92.16015625 126.8828125 C-92.97412542 118.14433883 -92.22319911 111.04275867 -89.16015625 102.8828125 C-89.75534058 102.25004395 -89.75534058 102.25004395 -90.36254883 101.60449219 C-94.31266517 97.40304107 -98.25523051 93.19462215 -102.19335938 88.98193359 C-103.92150743 87.13751739 -105.65670667 85.30013188 -107.39453125 83.46484375 C-116.58684431 73.69308584 -122.85994543 66.34411967 -122.67578125 52.5625 C-120.05324235 33.84710873 -101.01681187 15.33474229 -89.37426758 1.40649414 C-88.22153802 -0.0401548 -87.18621347 -1.57810168 -86.16015625 -3.1171875 C-80.42975299 -2.76510764 -74.8554053 -2.1120327 -69.22338867 -0.97167969 C-57.8309949 1.3307944 -49.7078463 1.58176338 -38.66015625 -2.1171875 C-24.53261738 -6.84004467 -13.95103267 -4.93200908 0 0 Z " fill="#F9F9FA" transform="translate(150.16015625,34.1171875)"/>
<path d="M0 0 C6.26585933 1.85594261 13.68122745 1.72786376 19.98046875 -0.0546875 C20.5940625 -0.21710937 21.20765625 -0.37953125 21.83984375 -0.546875 C23.54598531 -1.00143096 25.24191038 -1.49428513 26.93359375 -2 C30.70588579 -2.77770002 33.21082165 -2.98069968 36.98046875 -2.1171875 C41.4318057 1.12308268 44.40663473 5.99854438 47.4140625 10.52539062 C49.06100488 13.00401837 50.76419995 15.43612104 52.48046875 17.8671875 C67.02744459 38.63596592 67.02744459 38.63596592 66.671875 47.06640625 C65.29718424 52.66613529 61.01277602 55.9990038 56.98046875 59.8828125 C54.99395517 61.98218072 53.05195863 64.12137499 51.10546875 66.2578125 C50.09211345 67.35636211 49.07778446 68.45401433 48.0625 69.55078125 C47.5567041 70.09782715 47.0509082 70.64487305 46.52978516 71.20849609 C45.48316056 72.33956314 44.43594484 73.47008346 43.38818359 74.60009766 C41.85439959 76.25495743 40.32345946 77.9124073 38.79296875 79.5703125 C38.3232666 80.07546387 37.85356445 80.58061523 37.36962891 81.10107422 C33.79823531 84.96977053 33.79823531 84.96977053 32.73046875 90.0078125 C32.77511607 93.93730255 32.77511607 93.93730255 34.48046875 97.5078125 C36.7523416 103.16005656 36.88102538 108.9010664 35.98046875 114.8828125 C33.47346841 120.7497102 29.28757131 125.41694961 23.98046875 128.8828125 C18.23169569 130.3392617 14.44138352 129.36634743 9.23046875 126.8828125 C8.18656982 126.4034021 8.18656982 126.4034021 7.12158203 125.91430664 C1.10383882 123.08303963 -4.73869991 119.94956204 -10.01953125 115.8828125 C-10.82269775 115.26986328 -10.82269775 115.26986328 -11.64208984 114.64453125 C-14.06662177 112.56615711 -15.76719246 110.98288024 -16.49560547 107.80737305 C-16.60874287 105.51168953 -16.54610632 103.30087132 -16.39453125 101.0078125 C-16.35392578 99.8321875 -16.35392578 99.8321875 -16.3125 98.6328125 C-16.24233403 96.71494269 -16.13472879 94.7985049 -16.01953125 92.8828125 C-13.29272014 92.04101855 -10.56351682 91.20918181 -7.83203125 90.3828125 C-7.06310547 90.14433594 -6.29417969 89.90585938 -5.50195312 89.66015625 C-4.75107422 89.43457031 -4.00019531 89.20898438 -3.2265625 88.9765625 C-2.19752808 88.66235352 -2.19752808 88.66235352 -1.14770508 88.34179688 C1.27608338 87.81905714 3.50817256 87.80726487 5.98046875 87.8828125 C5.67211116 84.00747126 5.35804765 80.1326126 5.04296875 76.2578125 C4.95595703 75.16339844 4.86894531 74.06898437 4.77929688 72.94140625 C4.69228516 71.87792969 4.60527344 70.81445312 4.515625 69.71875 C4.43707275 68.74470215 4.35852051 67.7706543 4.27758789 66.76708984 C3.96955579 63.77687519 3.48760846 60.84501018 2.98046875 57.8828125 C2.79879948 55.86628364 2.67335583 53.84386969 2.60546875 51.8203125 C2.55648437 50.81871094 2.5075 49.81710938 2.45703125 48.78515625 C3.00477192 45.74805686 3.75070046 44.03449446 6.07714844 41.96557617 C10.52592001 39.43475243 15.81100633 38.92157219 20.79296875 38.0703125 C22.54770508 37.74643555 22.54770508 37.74643555 24.33789062 37.41601562 C27.21604901 36.88737429 30.09623418 36.3770257 32.98046875 35.8828125 C31.33046875 32.9128125 29.68046875 29.9428125 27.98046875 26.8828125 C18.40630829 27.98529158 9.02755306 29.57883704 -0.40332031 31.56152344 C-1.62873535 31.81724121 -1.62873535 31.81724121 -2.87890625 32.078125 C-3.60561523 32.23297363 -4.33232422 32.38782227 -5.08105469 32.54736328 C-7.01953125 32.8828125 -7.01953125 32.8828125 -10.01953125 32.8828125 C-9.68953125 33.8728125 -9.35953125 34.8628125 -9.01953125 35.8828125 C-8.72789059 38.69449937 -8.47856631 41.4947652 -8.265625 44.3125 C-8.20045181 45.1398465 -8.13527863 45.96719299 -8.06813049 46.8196106 C-7.93107278 48.56954185 -7.79586012 50.31961846 -7.66235352 52.06982422 C-7.45832154 54.74092058 -7.24820129 57.41148452 -7.03710938 60.08203125 C-6.90458641 61.78382605 -6.77241347 63.48564816 -6.640625 65.1875 C-6.57814072 65.98348602 -6.51565643 66.77947205 -6.45127869 67.59957886 C-6.16575411 71.37107343 -5.94441846 75.09693905 -6.01953125 78.8828125 C-14.94919354 82.03752531 -21.73993582 83.64575971 -31.01953125 80.8828125 C-32.27894531 80.52445312 -33.53835937 80.16609375 -34.8359375 79.796875 C-35.88652344 79.49523437 -36.93710938 79.19359375 -38.01953125 78.8828125 C-37.42834273 63.47113935 -35.75967711 48.20198932 -34.01953125 32.8828125 C-34.87933594 32.77018066 -35.73914063 32.65754883 -36.625 32.54150391 C-45.15096292 31.41092232 -53.56252165 29.87811947 -61.99682617 28.20410156 C-62.86412354 28.03362305 -63.7314209 27.86314453 -64.625 27.6875 C-65.39996826 27.53265137 -66.17493652 27.37780273 -66.97338867 27.21826172 C-69.16736823 26.80192123 -69.16736823 26.80192123 -72.01953125 26.8828125 C-73.48308876 28.34583505 -73.48308876 28.34583505 -74.70703125 30.2578125 C-75.14402344 30.88429687 -75.58101562 31.51078125 -76.03125 32.15625 C-77.18512231 33.84053907 -77.18512231 33.84053907 -77.01953125 35.8828125 C-76.28839111 36.00809326 -75.55725098 36.13337402 -74.80395508 36.26245117 C-71.47602436 36.84460803 -68.15437325 37.45709786 -64.83203125 38.0703125 C-63.68154297 38.26689453 -62.53105469 38.46347656 -61.34570312 38.66601562 C-56.60816273 39.5585957 -52.83790118 40.37435781 -48.71875 42.93359375 C-46.16746334 47.36168898 -46.58390465 50.88099834 -47.01953125 55.8828125 C-47.11878906 57.13868164 -47.21804687 58.39455078 -47.3203125 59.68847656 C-47.67588205 63.96610521 -48.09553216 68.23651966 -48.51953125 72.5078125 C-48.66449874 74.00386404 -48.80903327 75.49995761 -48.953125 76.99609375 C-49.30360755 80.62549766 -49.65993162 84.2542992 -50.01953125 87.8828125 C-48.81941406 88.016875 -47.61929688 88.1509375 -46.3828125 88.2890625 C-42.89215368 88.7258755 -39.59468876 89.41352566 -36.20703125 90.3828125 C-35.29308594 90.640625 -34.37914063 90.8984375 -33.4375 91.1640625 C-31.62135372 91.70391858 -29.81698742 92.28366044 -28.01953125 92.8828125 C-26.68185882 107.41555002 -26.68185882 107.41555002 -29.42578125 112.4765625 C-31.81608512 114.71977074 -34.16699377 116.25535724 -37.01953125 117.8828125 C-37.66825195 118.25873535 -38.31697266 118.6346582 -38.98535156 119.02197266 C-57.61416508 129.69925558 -57.61416508 129.69925558 -65.01953125 130.0078125 C-71.42765985 127.60476427 -75.74135928 122.95360702 -79.08203125 117.0703125 C-81.78811729 111.06589936 -81.40999172 105.866878 -79.265625 99.72265625 C-78.99878906 99.05363281 -78.73195313 98.38460937 -78.45703125 97.6953125 C-76.91327659 93.76931715 -76.13591811 91.15360932 -77.01953125 86.8828125 C-79.68254115 83.22356868 -82.84773822 80.10064026 -86.01953125 76.8828125 C-87.81856945 74.93055226 -89.61012951 72.9732729 -91.39453125 71.0078125 C-94.27816146 67.85454547 -97.1740326 64.71365024 -100.09375 61.59375 C-100.59406738 61.0560498 -101.09438477 60.51834961 -101.60986328 59.96435547 C-103.00503458 58.46552965 -104.40473146 56.97092017 -105.8046875 55.4765625 C-108.85133423 51.90870813 -110.3098442 49.34141233 -110.39453125 44.6328125 C-110.42289063 43.92640625 -110.45125 43.22 -110.48046875 42.4921875 C-108.80888706 33.02933521 -101.21212617 24.77822116 -95.70019531 17.23193359 C-93.9904368 14.8421462 -92.3585456 12.41083771 -90.73046875 9.96484375 C-82.87997397 -1.52174361 -82.87997397 -1.52174361 -78.17578125 -3.02734375 C-75.21821433 -2.78512922 -72.81927608 -2.09031818 -70.01953125 -1.1171875 C-68.04696521 -0.72793447 -66.06706211 -0.37435481 -64.08203125 -0.0546875 C-63.08429688 0.11417969 -62.0865625 0.28304687 -61.05859375 0.45703125 C-51.31423769 1.82224309 -44.04439177 0.65396634 -35.01953125 -3.1171875 C-22.81641307 -7.47544399 -11.78219625 -4.35926019 0 0 Z " fill="#260651" transform="translate(150.01953125,46.1171875)"/>
<path d="M0 0 C3.03602724 1.38307908 5.33954804 3.03187255 7.875 5.1875 C13.73974359 9.85197161 20.25267882 12.81539885 27 16 C27.63969727 16.35723145 28.27939453 16.71446289 28.93847656 17.08251953 C31.21532549 18.09583055 32.64451716 18.21912908 35.12109375 18.16015625 C35.95672852 18.14831299 36.79236328 18.13646973 37.65332031 18.12426758 C38.57209961 18.10388428 39.49087891 18.08350098 40.4375 18.0625 C50.70436423 17.9626311 60.96183791 18.03976363 71.22634888 18.26144409 C72.90762119 18.29545786 74.58901582 18.32388788 76.27047729 18.34671021 C78.65479287 18.37986451 81.0380129 18.4317908 83.421875 18.48828125 C84.14280838 18.49466614 84.86374176 18.50105103 85.60652161 18.50762939 C88.37942404 18.58993211 90.52332167 18.7206009 92.94433594 20.13964844 C95.51861672 24.67619321 94.51010228 30.87373016 94.5 35.9375 C94.52835938 37.22591797 94.55671875 38.51433594 94.5859375 39.84179688 C94.58851563 41.07865234 94.59109375 42.31550781 94.59375 43.58984375 C94.60083984 44.72284912 94.60792969 45.85585449 94.61523438 47.02319336 C94 50 94 50 91.86987305 52.15667725 C88.42416269 54.36986097 86.53495631 54.49081388 82.46679688 54.4699707 C81.15932495 54.47289627 79.85185303 54.47582184 78.50476074 54.47883606 C77.07608408 54.4616772 75.64741384 54.44397665 74.21875 54.42578125 C72.72595662 54.42084239 71.23315698 54.41755328 69.74035645 54.41581726 C65.79255072 54.40621432 61.84531556 54.37182325 57.89770508 54.33294678 C54.7652488 54.3062343 51.63287178 54.29724961 48.50032043 54.289217 C38.6656393 54.26364454 28.83341234 54.15661455 19 54 C18.27455994 53.98918144 17.54911987 53.97836288 16.80169678 53.96721649 C12.00230375 53.8941713 7.20466375 53.78955401 2.40625 53.66796875 C1.18901245 53.6467244 -0.0282251 53.62548004 -1.28234863 53.60359192 C-2.39251343 53.56964828 -3.50267822 53.53570465 -4.64648438 53.50073242 C-5.6134021 53.47653732 -6.58031982 53.45234222 -7.57653809 53.42741394 C-10 53 -10 53 -11.82385254 51.70210266 C-13 50 -13 50 -13.171875 46.265625 C-13.52992984 42.39083349 -14.73593768 40.84847593 -17.640625 38.296875 C-19.15962824 37.09223939 -20.69689452 35.91033666 -22.25 34.75 C-23.01441406 34.151875 -23.77882813 33.55375 -24.56640625 32.9375 C-26.04029441 31.78689992 -27.52113699 30.64513625 -29.00976562 29.51367188 C-31.37294014 27.71636054 -33.69072874 25.86589118 -36 24 C-35.72143555 22.11401367 -35.72143555 22.11401367 -35 20 C-32.27034476 18.59454355 -29.6567337 17.4320296 -26.8125 16.3125 C-20.56611699 13.70656663 -14.73146266 10.89633123 -9.0625 7.1875 C-8.49055908 6.81471924 -7.91861816 6.44193848 -7.3293457 6.05786133 C-4.63044836 4.24807042 -2.18480565 2.41318255 0 0 Z " fill="#DDDDDF" transform="translate(127,166)"/>
<path d="M0 0 C3.03602724 1.38307908 5.33954804 3.03187255 7.875 5.1875 C13.73974359 9.85197161 20.25267882 12.81539885 27 16 C28.33548384 16.6623482 29.66996688 17.32677336 31 18 C31 18.33 31 18.66 31 19 C29.15269287 19.029729 29.15269287 19.029729 27.26806641 19.06005859 C22.70942339 19.13599182 18.15110473 19.22472763 13.59277344 19.31738281 C11.61790356 19.35572349 9.64296264 19.3905673 7.66796875 19.421875 C4.83307455 19.46741547 1.9986717 19.52542715 -0.8359375 19.5859375 C-1.72243988 19.59748871 -2.60894226 19.60903992 -3.52230835 19.62094116 C-4.34300812 19.64081085 -5.16370789 19.66068054 -6.00927734 19.68115234 C-6.73319672 19.69447601 -7.45711609 19.70779968 -8.20297241 19.7215271 C-10.25153495 19.85787921 -10.25153495 19.85787921 -12 22 C-12.36894582 24.03060659 -12.36894582 24.03060659 -12.4140625 26.3515625 C-12.45273438 27.20234375 -12.49140625 28.053125 -12.53125 28.9296875 C-12.57765625 30.26386719 -12.57765625 30.26386719 -12.625 31.625 C-12.66367188 32.5221875 -12.70234375 33.419375 -12.7421875 34.34375 C-12.83659357 36.5622927 -12.92216748 38.78082403 -13 41 C-17.7452007 39.49499231 -20.83788647 36.85377759 -24.5 33.625 C-25.61407204 32.65826463 -26.72864799 31.69210965 -27.84375 30.7265625 C-28.37355469 30.26540039 -28.90335937 29.80423828 -29.44921875 29.32910156 C-31.58812824 27.49594299 -33.78690375 25.74240041 -36 24 C-35.72143555 22.11401367 -35.72143555 22.11401367 -35 20 C-32.27034476 18.59454355 -29.6567337 17.4320296 -26.8125 16.3125 C-20.56611699 13.70656663 -14.73146266 10.89633123 -9.0625 7.1875 C-8.49055908 6.81471924 -7.91861816 6.44193848 -7.3293457 6.05786133 C-4.63044836 4.24807042 -2.18480565 2.41318255 0 0 Z " fill="#28104C" transform="translate(127,166)"/>
<path d="M0 0 C18.11556489 -0.02338282 36.23112585 -0.04100561 54.34670258 -0.05181217 C62.75848394 -0.05696369 71.17025591 -0.06398458 79.58203125 -0.07543945 C86.91558034 -0.08542125 94.24912262 -0.09186175 101.58267832 -0.09408849 C105.46403756 -0.09538966 109.34537735 -0.09843788 113.22673035 -0.10573006 C116.88413959 -0.11254546 120.54152147 -0.11460577 124.19893646 -0.11310768 C126.17264659 -0.11351156 128.14635377 -0.11887789 130.12005615 -0.12442017 C136.17744598 -0.11741678 142.01262683 0.06013045 148 1 C148 1.33 148 1.66 148 2 C146.12653733 2.20228417 144.25103375 2.3856424 142.375 2.5625 C141.33085937 2.66691406 140.28671875 2.77132813 139.2109375 2.87890625 C135.84270957 3.07096477 132.61234373 2.81637759 129.25439453 2.51147461 C119.55180407 1.79365759 109.85596691 1.88835755 100.13172913 1.92483521 C96.64864492 1.93776014 93.16559943 1.94415507 89.68249512 1.94897461 C82.28831258 1.96032524 74.89416228 1.97956052 67.5 2 C58.92220775 2.02371136 50.34443433 2.04406968 41.76661682 2.05593872 C38.35801655 2.06235549 34.94947496 2.07486018 31.54089355 2.08764648 C20.97791503 2.11225154 10.52284421 2.03163999 0 1 C0 0.67 0 0.34 0 0 Z " fill="#2E0F57" transform="translate(58,0)"/>
<path d="M0 0 C5 1 5 1 7.3125 4.0625 C7.869375 5.031875 8.42625 6.00125 9 7 C9.33 4.69 9.66 2.38 10 0 C11.32 0 12.64 0 14 0 C14 4.95 14 9.9 14 15 C9 14 9 14 6.6875 10.9375 C6.130625 9.968125 5.57375 8.99875 5 8 C4.67 10.31 4.34 12.62 4 15 C2.68 15 1.36 15 0 15 C0 10.05 0 5.1 0 0 Z " fill="#101011" transform="translate(120,194)"/>
<path d="M0 0 C1.9375 1.375 1.9375 1.375 3 3 C3 3.66 3 4.32 3 5 C1.68 5 0.36 5 -1 5 C-1 4.34 -1 3.68 -1 3 C-2.65 3.66 -4.3 4.32 -6 5 C-6 7.31 -6 9.62 -6 12 C-4.35 11.67 -2.7 11.34 -1 11 C-1.66 10.67 -2.32 10.34 -3 10 C-3 9.01 -3 8.02 -3 7 C-0.69 7 1.62 7 4 7 C4.3125 9.25 4.3125 9.25 4 12 C1.9375 14.375 1.9375 14.375 -1 16 C-4.77910616 16 -7.00693033 15.83289714 -9.9375 13.375 C-11.43699866 10.02317947 -11.45377473 7.63019782 -11 4 C-8.10582692 -0.51491 -5.12365602 -0.65210168 0 0 Z " fill="#111111" transform="translate(154,194)"/>
<path d="M0 0 C1.32 0 2.64 0 4 0 C4 1.98 4 3.96 4 6 C5.98 6 7.96 6 10 6 C10 4.02 10 2.04 10 0 C11.32 0 12.64 0 14 0 C14 4.95 14 9.9 14 15 C12.68 15 11.36 15 10 15 C10 13.02 10 11.04 10 9 C8.02 9 6.04 9 4 9 C4 10.98 4 12.96 4 15 C2.68 15 1.36 15 0 15 C0 10.05 0 5.1 0 0 Z " fill="#030303" transform="translate(160,194)"/>
<path d="M0 0 C2.475 0.495 2.475 0.495 5 1 C5.33 2.32 5.66 3.64 6 5 C6.66 5 7.32 5 8 5 C8.66 3.35 9.32 1.7 10 0 C11.32 0.33 12.64 0.66 14 1 C13.72285156 1.50789062 13.44570312 2.01578125 13.16015625 2.5390625 C10.9665317 6.7077298 9.47586845 10.24131553 9 15 C7.68 15 6.36 15 5 15 C4.731875 13.824375 4.46375 12.64875 4.1875 11.4375 C3.18552881 7.39357312 1.7340076 3.7832893 0 0 Z " fill="#0B0B0B" transform="translate(200,194)"/>
<path d="M0 0 C4.29 0 8.58 0 13 0 C13 0.99 13 1.98 13 3 C11.35 3 9.7 3 8 3 C8 7.29 8 11.58 8 16 C6.68 16 5.36 16 4 16 C4 11.71 4 7.42 4 3 C2.68 3 1.36 3 0 3 C0 2.01 0 1.02 0 0 Z " fill="#151515" transform="translate(176,194)"/>
<path d="M0 0 C1.32 0 2.64 0 4 0 C4 3.96 4 7.92 4 12 C5.98 12 7.96 12 10 12 C10 12.99 10 13.98 10 15 C6.7 15 3.4 15 0 15 C0 10.05 0 5.1 0 0 Z " fill="#111111" transform="translate(191,194)"/>
<path d="M0 0 C1.32 0 2.64 0 4 0 C4 4.95 4 9.9 4 15 C2.68 15 1.36 15 0 15 C0 10.05 0 5.1 0 0 Z " fill="#0E0E0E" transform="translate(137,194)"/>
<path d="M0 0 C1.32 0 2.64 0 4 0 C4 0.66 4 1.32 4 2 C5.65 1.67 7.3 1.34 9 1 C9 1.66 9 2.32 9 3 C6.69 3.33 4.38 3.66 2 4 C2 4.99 2 5.98 2 7 C2.99 7.33 3.98 7.66 5 8 C4 9 4 9 1.4375 9.0625 C0.633125 9.041875 -0.17125 9.02125 -1 9 C-1.625 5.625 -1.625 5.625 -2 2 C-1.34 1.34 -0.68 0.68 0 0 Z " fill="#D1D1D2" transform="translate(149,197)"/>
<path d="M0 0 C0.66 0.33 1.32 0.66 2 1 C-2.62 5.62 -7.24 10.24 -12 15 C-12.66 14.67 -13.32 14.34 -14 14 C-12.60919892 12.41224451 -11.21211596 10.82999061 -9.8125 9.25 C-8.64654297 7.92742188 -8.64654297 7.92742188 -7.45703125 6.578125 C-5.11544754 4.12113732 -2.69841735 2.05137234 0 0 Z " fill="#36175C" transform="translate(25,11)"/>
</svg>
